<?xml version="1.0" encoding="utf-8"?><svg width='120px' height='120px' xmlns="http://www.w3.org/2000/svg" viewBox="0 0 100 100" preserveAspectRatio="xMidYMid" class="uil-g0v"><rect x="0" y="0" width="100" height="100" fill="none" class="bk"></rect><g><g><g><g><path fill="#C60000" d="M94.8,0.1H82.9L5.2,100.3h12.1L94.8,0.1z"></path><path d="M77.2,35.3c-3.9-4-11.4-7.6-28-7.6c-15.9,0-24.1,3.6-28,7.6c-3.6,3.7-5.6,8.3-5.6,15.1s2,11.4,5.6,15c3.9,4,11.8,7.7,28,7.7 s24.1-3.6,28-7.6c3.6-3.7,5.6-8.3,5.6-15.1C82.8,43.5,80.8,39,77.2,35.3z M49.2,63.4c-10.6,0-16.1-2.2-18.4-4.6 c-1.8-1.9-3.1-4.2-3.1-8.8s1.1-7,3.1-9c2.4-2.4,7.9-4.4,18.5-4.4s15.9,2,18.4,4.5c1.9,2,3.1,4.3,3.1,8.8s-1.1,7-3.1,9 C65.2,61.5,59.8,63.4,49.2,63.4z"></path><animate attributeName="none" from="0" to="10" dur="1s" repeatCount="indefinite"></animate></g><animateTransform attributeName="transform" type="rotate" from="0 50 50" to="360 50 50" dur="1s" repeatCount="indefinite"></animateTransform></g><animateTransform attributeName="none" type="scale" begin="0" dur="1s" fill="freeze" repeatCount="indefinite" calcMode="spline" from="0.8 0.15" to="0.8 0.15" values="0.8 0.15;0.8 0.8;0.8 0.15" keySplines="0.2 0.8 0.4 1;0.8 0.2 1 0.4" keyTimes="0;0.5;1"></animateTransform></g><animateTransform attributeName="none" type="translate" begin="0" dur="1s" fill="freeze" repeatCount="indefinite" calcMode="spline" from="10 85" to="10 85" values="10 85;10 0;10 85" keySplines="0.2 0.8 0.4 1;0.8 0.2 1 0.4" keyTimes="0;0.5;1"></animateTransform></g></svg>